:SAMPLES-PER-SECOND 24
:FULLY-SPECIFIED
:DEGREES
534
root  -3.16501 39.5893 21.305 3.28174 -46.6918 -0.953918
RightUpLeg  -6.94987 -2.5316 -6.22936
RightLeg  20.8663 -11.3363 -4.98582
RightFoot  -10.7077 -0.111174 6.93275
RightToes  -2.08645e-008 3.77894e-005 6.81332e-007
Spine  1.54859 0.413658 -0.859339
Spine1  9.07266 -0.894954 6.22158
HEad  25.1411 30.0508 25.2529
LeftShoulder1  1.95093 -4.6463 -17.2888
LeftArm  -77.3934 -49.8423 13.6707
LeftForeArm  174.486 -59.7683 -163.374
LeftHand  -0.268553 2.70452 11.2928
RightShoulder  2.33944 4.75594 22.0926
RightArm  -21.0731 46.6594 30.0417
RightForeArm  177.29 64.4367 160.21
RightHand  -1.98768 2.28801 -29.6566
LeftUpLeg  -19.6893 8.67004 13.1371
LeftLeg  42.2781 -7.66034 -7.0217
LeftFoot  -2.81481 1.69589 -22.2746
LeftToes  1.24767e-006 1.47042e-008 1.32732e-009
535
root  -3.51256 39.6926 21.7274 2.89819 -47.5129 -0.459778
RightUpLeg  -6.11012 -2.02501 -6.8669
RightLeg  20.6232 -10.7771 -4.68451
RightFoot  -10.4449 -0.130176 7.55057
RightToes  -2.08645e-008 3.77894e-005 6.81332e-007
Spine  1.51105 1.14219 -1.08106
Spine1  7.78951 -0.039072 5.86573
HEad  23.1574 32.9885 26.1862
LeftShoulder1  1.73881 -4.00801 -16.4271
LeftArm  -82.734 -48.8075 17.6362
LeftForeArm  174.993 -59.2098 -163.769
LeftHand  -0.209995 3.15328 10.4094
RightShoulder  2.36069 4.86509 21.9688
RightArm  -19.8706 46.804 31.0299
RightForeArm  176.066 65.0399 159.559
RightHand  -1.98013 2.14835 -30.0676
LeftUpLeg  -19.0226 9.14195 13.3631
LeftLeg  37.578 -3.13331 -2.26604
LeftFoot  -2.78417 1.45339 -19.0856
LeftToes  1.24767e-006 1.47042e-008 1.32732e-009
536
root  -3.74197 39.7127 22.2787 2.92969 -47.8741 -0.442505
RightUpLeg  -5.25723 -2.23825 -7.50023
RightLeg  20.3694 -9.97147 -4.30225
RightFoot  -10.5464 -0.129136 8.26577
RightToes  -2.08645e-008 3.77894e-005 6.81332e-007
Spine  1.4379 1.41459 -1.09493
Spine1  6.5792 0.288475 5.65223
HEad  21.1384 34.3252 25.5507
LeftShoulder1  1.55587 -3.42689 -15.6639
LeftArm  -86.4676 -47.8142 20.9013
LeftForeArm  176.757 -58.8848 -164.121
LeftHand  -0.17795 3.53828 10.4662
RightShoulder  2.34942 4.87501 21.7896
RightArm  -19.2391 47.2515 32.4673
RightForeArm  175.867 65.5909 159.039
RightHand  -1.99563 2.37546 -29.4538
LeftUpLeg  -17.5482 7.16081 13.8564
LeftLeg  29.3173 3.05291 2.1512
LeftFoot  -1.14219 1.49673 -16.6096
LeftToes  1.24767e-006 1.47042e-008 1.32732e-009
537
root  -3.8872 39.5983 22.9749 3.42139 -48.1122 -1.09912
RightUpLeg  -4.22528 -2.76229 -7.84947
RightLeg  19.9773 -9.10712 -3.91
RightFoot  -11.0928 -0.0949207 8.94083
RightToes  -2.08645e-008 3.77894e-005 6.81332e-007
Spine  0.891743 1.54628 -1.00277
Spine1  6.0076 0.322895 6.00252
HEad  18.9267 35.1619 24.0805
LeftShoulder1  1.46812 -3.16516 -15.1876
LeftArm  -88.9137 -47.0955 23.7179
LeftForeArm  177.868 -59.1668 -164.047
LeftHand  -0.151323 3.96559 11.3619
RightShoulder  2.29031 4.78528 21.3524
RightArm  -19.2354 48.1248 33.3591
RightForeArm  175.748 66.0093 158.633
RightHand  -2.05609 2.57897 -29.5646
LeftUpLeg  -15.5302 4.0981 14.8046
LeftLeg  19.4791 5.86672 2.57253
LeftFoot  0.3102 1.63767 -15.9795
LeftToes  1.24767e-006 1.47042e-008 1.32732e-009
538
root  -3.94856 39.3743 23.8466 4.21729 -48.692 -2.08243
RightUpLeg  -2.87115 -2.63268 -8.14351
RightLeg  19.0627 -9.15246 -3.83861
RightFoot  -11.8786 -0.0359402 9.55586
RightToes  -2.08645e-008 3.77894e-005 6.81332e-007
Spine  -0.257267 1.60127 -0.529648
Spine1  5.89808 0.360141 5.83358
HEad  17.4209 36.2284 23.2279
LeftShoulder1  1.42879 -3.09559 -14.7887
LeftArm  -90.4504 -46.679 25.6466
LeftForeArm  178.133 -59.7373 -163.717
LeftHand  -0.130674 4.29326 12.5356
RightShoulder  2.19262 4.62736 20.6408
RightArm  -19.5086 49.4965 33.6188
RightForeArm  175.31 66.4555 158.15
RightHand  -2.06578 2.47172 -30.0819
LeftUpLeg  -13.7162 3.97763 14.7154
LeftLeg  11.8022 3.83943 1.86691
LeftFoot  1.23575 1.76302 -15.9813
LeftToes  1.24767e-006 1.47042e-008 1.32732e-009
539
root  -3.86568 39.1735 24.8422 4.28906 -49.2168 -2.36523
RightUpLeg  -1.24724 -1.94511 -9.24481
RightLeg  17.8603 -9.41686 -3.81431
RightFoot  -12.2881 0.00459679 10.6383
RightToes  -2.08645e-008 3.77894e-005 6.81332e-007
Spine  -1.09514 1.4458 -0.798213
Spine1  5.55514 0.228122 5.52263
HEad  17.0831 36.9632 23.2721
LeftShoulder1  1.41799 -3.12653 -14.4999
LeftArm  -90.8003 -47.1262 26.3359
LeftForeArm  178.817 -60.0007 -163.611
LeftHand  -0.147748 4.20957 13.4259
RightShoulder  2.08823 4.44855 19.8824
RightArm  -19.942 50.6712 33.9086
RightForeArm  176.629 66.7423 158.01
RightHand  -1.96338 2.03809 -30.2463
LeftUpLeg  -13.2429 2.34162 13.2786
LeftLeg  11.0072 5.29839 2.68932
LeftFoot  1.06549 1.52381 -14.0022
LeftToes  1.24767e-006 1.47042e-008 1.32732e-009
540
root  -3.62896 39.0706 25.9023 3.08105 -49.2262 -1.74911
RightUpLeg  -0.0186031 -0.951756 -11.2377
RightLeg  18.4323 -9.7874 -3.95618
RightFoot  -11.7042 -0.038829 12.5904
RightToes  -2.08645e-008 3.77894e-005 6.81332e-007
Spine  -1.28084 1.31437 -2.5448
Spine1  5.44539 -0.154457 6.887
HEad  16.9542 36.9673 22.8497
LeftShoulder1  1.49312 -3.40815 -14.7357
LeftArm  -90.3686 -48.564 25.9488
LeftForeArm  179.819 -59.8165 -163.815
LeftHand  -0.163623 4.09627 13.7214
RightShoulder  2.02049 4.30831 19.4564
RightArm  -20.699 50.9295 33.9824
RightForeArm  -179.973 66.3772 158.741
RightHand  -1.81699 1.24023 -31.2986
LeftUpLeg  -13.75 -3.0937 11.629
LeftLeg  15.6734 11.072 4.27086
LeftFoot  -0.826809 1.0747 -11.5846
LeftToes  1.24767e-006 1.47042e-008 1.32732e-009
541
root  -3.32733 39.1199 27.0202 1.93628 -49.5624 -1.24509
RightUpLeg  0.00926611 -0.537167 -13.5164
RightLeg  20.8421 -9.39396 -4.14496
RightFoot  -9.46718 -0.316506 15.3215
RightToes  -2.08645e-008 3.77894e-005 6.81332e-007
Spine  -1.71852 1.52133 -3.37405
Spine1  5.87887 -0.112913 7.87247
HEad  16.5675 36.6823 21.5506
LeftShoulder1  1.62594 -3.83519 -15.3423
LeftArm  -89.2116 -49.8451 24.8622
LeftForeArm  179.958 -59.7551 -163.866
LeftHand  -0.133982 4.39195 14.303
RightShoulder  1.9974 4.20679 19.5015
RightArm  -20.7722 50.6963 33.7573
RightForeArm  -177.269 65.5805 159.77
RightHand  -1.65326 0.344906 -32.8251
LeftUpLeg  -13.522 -4.19303 9.74937
LeftLeg  18.8997 12.0499 4.84864
LeftFoot  -2.88377 0.816366 -10.7919
LeftToes  1.24767e-006 1.47042e-008 1.32732e-009
542
root  -3.02875 39.3284 28.1527 1.84277 -51.1679 -1.02402
RightUpLeg  -1.80122 -0.69871 -15.9992
RightLeg  23.4209 -6.83808 -3.45232
RightFoot  -5.66306 -0.941704 18.066
RightToes  -2.08645e-008 3.77894e-005 6.81332e-007
Spine  -2.59296 2.01479 -2.38174
Spine1  5.54149 0.639348 6.47299
HEad  16.9245 36.5498 20.5701
LeftShoulder1  1.69784 -4.03601 -15.7421
LeftArm  -86.9458 -49.7104 23.6869
LeftForeArm  179.113 -59.9441 -163.673
LeftHand  -0.0967283 4.7596 15.8264
RightShoulder  2.00552 4.18718 19.6866
RightArm  -19.274 50.9601 34.1992
RightForeArm  -176.382 65.2812 160.129
RightHand  -1.48707 -0.323297 -33.3778
LeftUpLeg  -12.0353 -2.26008 7.80405
LeftLeg  18.1606 11.7089 4.58926
LeftFoot  -3.80898 0.689238 -10.1062
LeftToes  1.24767e-006 1.47042e-008 1.32732e-009
543
root  -2.73523 39.5783 29.1817 2.23755 -53.1153 -0.766052
RightUpLeg  -5.21503 -1.12889 -18.1503
RightLeg  26.6956 -4.65715 -2.77541
RightFoot  -0.737222 -1.7603 18.8142
RightToes  -2.08645e-008 3.77894e-005 6.81332e-007
Spine  -3.01747 2.53702 -1.8867
Spine1  4.01977 1.35723 5.6704
HEad  17.4185 36.6501 19.7558
LeftShoulder1  1.67457 -3.9348 -15.7342
LeftArm  -85.0964 -48.2891 23.2228
LeftForeArm  178.545 -59.721 -163.763
LeftHand  -0.0404489 5.18767 17.6308
RightShoulder  2.01577 4.23448 19.6575
RightArm  -18.11 51.8569 35.152
RightForeArm  -175.67 65.4496 160.052
RightHand  -1.38488 -0.644662 -33.1955
LeftUpLeg  -10.268 -0.965972 5.75998
LeftLeg  15.784 12.9787 4.71167
LeftFoot  -3.97736 0.576969 -8.58921
LeftToes  1.24767e-006 1.47042e-008 1.32732e-009
